<svg width="26" height="17" viewBox="0 0 26 17" fill="none" xmlns="http://www.w3.org/2000/svg">
<path d="M24.122 0.0419006H2.37043C1.51225 0.0419006 0.81665 0.652588 0.81665 1.40601C0.81665 2.15943 1.51225 2.77012 2.37043 2.77012H24.122C24.9802 2.77012 25.6758 2.15943 25.6758 1.40601C25.6758 0.652588 24.9802 0.0419006 24.122 0.0419006Z" fill="#9BFF00"/>
<path d="M24.122 6.77011H2.37043C1.51225 6.77011 0.81665 7.3808 0.81665 8.13422C0.81665 8.88765 1.51225 9.49833 2.37043 9.49833H24.122C24.9802 9.49833 25.6758 8.88765 25.6758 8.13422C25.6758 7.3808 24.9802 6.77011 24.122 6.77011Z" fill="#9BFF00"/>
<path d="M2.37043 13.4984H24.122C24.9802 13.4984 25.6758 14.109 25.6758 14.8625C25.6758 15.6159 24.9802 16.2266 24.122 16.2266H2.37043C1.51225 16.2266 0.81665 15.6159 0.81665 14.8625C0.81665 14.109 1.51225 13.4984 2.37043 13.4984V13.4984Z" fill="#9BFF00"/>
</svg>
